# AST/ASF file generated using VICON BodyLanguage
# -----------------------------------------------
:version 1.10
:name VICON
:units
  mass 1.0
  length 0.45
  angle deg
:documentation
   .ast/.asf automatically generated from VICON data using
   VICON BodyBuilder and BodyLanguage model FoxedUp or BRILLIANT.MOD
:root
   order TX TY TZ RX RY RZ
   axis XYZ
   position 0 0 0  
   orientation 0 0 0 
:bonedata
  begin
     id 1 
     name lhipjoint
     direction 0.671379 -0.66392 0.329334 
     length 2.38647 
     axis 0 0 0  XYZ
  end
  begin
     id 2 
     name lfemur
     direction 0.34202 -0.939693 0  
     length 6.48179  
     axis 0 0 20  XYZ
    dof rx ry rz
    limits (-160.0 20.0)
           (-70.0 70.0)
           (-60.0 70.0)
  end
  begin
     id 3 
     name ltibia
     direction 0.34202 -0.939693 0   
     length 6.86524   
     axis 0 0 20   XYZ
    dof rx
    limits (-10.0 170.0)
  end
  begin
     id 4 
     name lfoot
     direction 0.204886 -0.562919 0.800715   
     length 1.73031   
     axis -90 7.62852e-016 20   XYZ
    dof rx rz
    limits (-45.0 90.0)
           (-70.0 20.0)
  end
  begin
     id 5 
     name ltoes
     direction 1.53548e-011 -4.21841e-011 1   
     length 0.828161   
     axis -90 7.62852e-016 20   XYZ
    dof rx
    limits (-90.0 20.0)
  end
  begin
     id 6 
     name rhipjoint
     direction -0.662732 -0.670855 0.332775   
     length 2.3618  
     axis 0 0 0  XYZ 
  end
  begin
     id 7 
     name rfemur
     direction -0.34202 -0.939693 0   
     length 6.3025   
     axis 0 0 -20   XYZ
    dof rx ry rz
    limits (-160.0 20.0)
           (-70.0 70.0)
           (-70.0 60.0)
  end
  begin
     id 8 
     name rtibia
     direction -0.34202 -0.939693 0   
     length 6.8732   
     axis 0 0 -20   XYZ
    dof rx
    limits (-10.0 170.0)
 end
 begin
     id 9 
     name rfoot
     direction -0.173856 -0.477665 0.861168   
     length 1.54784  
     axis -90 -7.62852e-016 -20   XYZ
    dof rx rz
    limits (-45.0 90.0)
           (-20.0 70.0)
  end
  begin
     id 10 
     name rtoes
     direction -1.53562e-011 -4.21802e-011 1   
     length 0.759618   
     axis -90 -7.62852e-016 -20   XYZ
    dof rx
    limits (-90.0 20.0)
  end
  begin
     id 11 
     name lowerback
     direction -0.0278357 0.999497 -0.0151789   
     length 1.97203   
     axis 0 0 0   XYZ
    dof rx ry rz
    limits (-20.0 45.0)
           (-30.0 30.0)
           (-30.0 30.0)
  end
  begin
     id 12 
     name upperback
     direction -0.00360622 0.997542 0.0699804   
     length 1.94709   
     axis 0 0 0   XYZ
    dof rx ry rz
    limits (-20.0 45.0)
           (-30.0 30.0)
           (-30.0 30.0)
  end
  begin
     id 13 
     name thorax
     direction 0.00907706 0.997048 0.0762461   
     length 1.95722   
     axis 0 0 0   XYZ
    dof rx ry rz
    limits (-20.0 45.0)
           (-30.0 30.0)
           (-30.0 30.0)
  end
  begin
     id 14 
     name lowerneck
     direction -0.0481835 0.99872 -0.0153927   
     length 1.63078   
     axis 0 0 0   XYZ
    dof rx ry rz
    limits (-20.0 45.0)
           (-30.0 30.0)
           (-30.0 30.0)
  end
  begin
     id 15 
     name upperneck
     direction 0.0859716 0.979226 -0.183644   
     length 1.62591   
     axis 0 0 0   XYZ
    dof rx ry rz
    limits (-20.0 45.0)
           (-30.0 30.0)
           (-30.0 30.0)
  end
  begin
     id 16
     name head
     direction 0.0324821 0.997629 -0.0606773  
     length 1.64811  
     axis 0 0 0   XYZ
    dof rx ry rz
    limits (-20.0 45.0)
           (-30.0 30.0)
           (-30.0 30.0)
  end
  begin
     id 17 
     name lclavicle
     direction 0.939609 0.311019 0.142835  
     length 3.70647  
     axis 0 0 0   XYZ
    dof ry rz
    limits (-20.0 10.0)
           (0.0 20.0)
  end
  begin
     id 18 
     name lhumerus
     direction 1 -4.48963e-011 -1.59838e-027   
     length 4.59207   
     axis 180 -30 -90   XYZ
    dof rx ry rz
    limits (-60.0 90.0)
           (-90.0 90.0)
           (-90.0 90.0)
  end
  begin
     id 19
     name lradius
     direction 1 -4.48957e-011 -1.3483e-026   
     length 2.98109   
     axis 180 -30 -90   XYZ
    dof rx
    limits (-10.0 170.0)
  end
  begin
     id 20
     name lwrist
     direction 1 -4.48954e-011 -3.11579e-026   
     length 1.49055   
     axis 2.00652e-014 90 90   XYZ
    dof ry
    limits (-180.0 0.0)
 end
  begin
     id 21 
     name lhand
     direction 1 -4.4911e-011 -6.23158e-026   
     length 0.480203   
     axis 3.97628e-014 90 90   XYZ
    dof rx rz
    limits (-90.0 90.0)
           (-45.0 45.0)
  end
  begin
     id 22 
     name lfingers
     direction 1 -4.48893e-011 -1.24632e-025   
     length 0.387152   
     axis 7.95256e-014 90 90   XYZ
    dof rx
    limits (0.0 90.0)
  end
  begin
     id 23
     name lthumb
     direction 0.707107 -6.35013e-011 0.707107   
     length 0.555875   
     axis -90 45 2.85299e-015   XYZ
    dof rx rz
    limits (-45.0 45.0)
           (-45.0 45.0)
  end
  begin
     id 24 
     name rclavicle
     direction -0.950396 0.30392 0.0661859   
     length 3.70894  
     axis 0 0 0   XYZ 
    dof ry rz
    limits (-10.0 20.0)
           (-20.0 0.0)
  end
  begin
     id 25 
     name rhumerus
     direction -1 -4.48957e-011 -2.96677e-027  
     length 4.76508   
     axis 180 30 90   XYZ
    dof rx ry rz
    limits (-90.0 60.0)
           (-90.0 90.0)
           (-90.0 90.0)
  end
  begin
     id 26 
     name rradius
     direction -1 -4.48974e-011 -1.44501e-026   
     length 2.78902   
     axis 180 30 90   XYZ
    dof rx
    limits (-10.0 170.0)
  end
  begin
     id 27 
     name rwrist
     direction -1 -4.48978e-011 -3.11579e-026   
     length 1.39451   
     axis 2.00652e-014 -90 -90   XYZ
    dof ry
    limits (-180.0 0.0)
  end
  begin
     id 28
     name rhand
     direction -1 -4.48956e-011 -6.23158e-026   
     length 0.721303   
     axis 3.97628e-014 -90 -90   XYZ
    dof rx rz
    limits (-90.0 90.0)
           (-45.0 45.0)
  end
  begin
     id 29
     name rfingers
     direction -1 -4.4899e-011 -1.24632e-025   
     length 0.581533   
     axis 7.95256e-014 -90 -90   XYZ
    dof rx
    limits (0.0 90.0)
  end
  begin
     id 30
     name rthumb
     direction -0.707107 -6.34911e-011 0.707107   
     length 0.834968   
     axis -90 -45 -2.85299e-015   XYZ
    dof rx rz
    limits (-45.0 45.0)
           (-45.0 45.0)
  end
:hierarchy
  begin
    root lhipjoint rhipjoint lowerback
    lhipjoint lfemur
    lfemur ltibia
    ltibia lfoot
    lfoot ltoes
    rhipjoint rfemur
    rfemur rtibia
    rtibia rfoot
    rfoot rtoes
    lowerback upperback
    upperback thorax
    thorax lowerneck lclavicle rclavicle
    lowerneck upperneck
    upperneck head
    lclavicle lhumerus
    lhumerus lradius
    lradius lwrist
    lwrist lhand lthumb
    lhand lfingers
    rclavicle rhumerus
    rhumerus rradius
    rradius rwrist
    rwrist rhand rthumb
    rhand rfingers
  end

#!OML:ASF I:\salsa\salsa 7_09\Patient 1\Session 1\dancerfemale.ASF
:FULLY-SPECIFIED
:DEGREES
106
root 14.4777 15.6444 1.35931 -167.12 -73.5505 168.301
lowerback 3.92009 1.14473 -6.96774
upperback -8.19471 0.759088 1.23394
thorax -11.1789 0.929802 5.16552
lowerneck -4.87533 -1.11667 -10.8189
upperneck 17.4343 -2.75083 11.7974
head 6.32632 -1.34512 5.43035
rclavicle 2.36554e-014 1.66979e-014
rhumerus -54.5661 6.05119 -97.5499
rradius 89.8413
rwrist 5.22834
rhand -10.3324 68.1177
rfingers 7.12502
rthumb 15.6635 38.7317
lclavicle 2.36554e-014 1.66979e-014
lhumerus -13.6321 -4.44627 57.4887
lradius 93.5246
lwrist 43.3098
lhand 19.2794 45.3237
lfingers 7.12502
lthumb 43.8632 69.2574
rfemur -10.7451 -10.7696 13.1489
rtibia 58.0666
rfoot -8.31192 -11.8683
rtoes -24.1771
lfemur -19.4263 7.42218 -30.7293
ltibia 42.1177
lfoot -27.7799 2.57148
ltoes 18.3047
107
root 14.5241 15.6632 1.34217 -165.165 -73.4235 166.753
lowerback 3.60191 0.927855 -6.80587
upperback -8.40671 0.433675 0.770606
thorax -11.1639 0.728773 4.61392
lowerneck -5.03337 -0.895562 -10.7743
upperneck 17.6546 -2.53535 12.2025
head 6.39673 -1.21044 5.57928
rclavicle 2.97183e-014 1.23246e-014
rhumerus -55.7014 5.92468 -97.0416
rradius 88.7151
rwrist 4.99952
rhand -10.4659 67.9206
rfingers 7.12502
rthumb 15.535 38.5247
lclavicle 2.97183e-014 1.23246e-014
lhumerus -14.5689 -3.70403 56.6742
lradius 94.0713
lwrist 43.4494
lhand 19.4663 45.1484
lfingers 7.12502
lthumb 44.0376 69.0172
rfemur -9.32697 -10.3472 12.7352
rtibia 57.438
rfoot -6.10659 -12.3128
rtoes -21.274
lfemur -19.8409 9.14411 -31.0951
ltibia 41.6253
lfoot -27.355 0.883981
ltoes 18.9932
108
root 14.5953 15.6921 1.33008 -164.569 -73.3042 166.883
lowerback 3.26957 0.700966 -6.04635
upperback -8.7075 0.141171 0.342951
thorax -11.2373 0.494623 3.76199
lowerneck -5.12308 -0.662115 -10.6034
upperneck 17.7816 -2.32156 12.6253
head 6.42366 -1.06902 5.71019
rclavicle -3.51849e-014 1.98785e-015
rhumerus -56.6289 5.87063 -96.4073
rradius 88.1251
rwrist 5.07795
rhand -10.4025 66.3452
rfingers 7.12502
rthumb 15.5961 36.954
lclavicle -3.51849e-014 1.98785e-015
lhumerus -15.5044 -2.85878 55.7468
lradius 94.6292
lwrist 43.5426
lhand 19.7254 45.1705
lfingers 7.12502
lthumb 44.2792 68.9484
rfemur -8.36553 -9.57174 13.1049
rtibia 56.4914
rfoot -4.32555 -13.6984
rtoes -19.7871
lfemur -20.6788 10.5475 -31.0529
ltibia 41.0774
lfoot -26.6949 -0.479558
ltoes 19.343
109
root 14.6826 15.722 1.31893 -165.222 -72.691 168
lowerback 3.34317 0.577552 -5.05632
upperback -8.94944 -0.00380634 -0.0170814
thorax -11.5162 0.319929 2.8376
lowerneck -5.14838 -0.319209 -10.4605
upperneck 17.8514 -1.94111 12.9943
head 6.39912 -0.853662 5.83746
rclavicle -6.19214e-014 -1.82882e-014
rhumerus -57.4476 6.15628 -95.7832
rradius 87.6897
rwrist 4.54456
rhand -10.6686 66.8211
rfingers 7.12502
rthumb 15.3398 37.4101
lclavicle -6.19214e-014 -1.82882e-014
lhumerus -16.6146 -1.77934 54.7267
lradius 95.2011
lwrist 43.6468
lhand 20.2439 45.1116
lfingers 7.12502
lthumb 44.7622 68.7042
rfemur -7.26665 -8.08967 13.7013
rtibia 55.2167
rfoot -2.67236 -14.1375
rtoes -17.7646
lfemur -21.2812 12.2481 -30.8453
ltibia 40.501
lfoot -26.0188 -1.55929
ltoes 19.418
110
root 14.7645 15.7502 1.30987 -164.561 -72.1548 167.817
lowerback 3.1987 0.300683 -4.32569
upperback -9.13675 -0.371811 -0.423693
thorax -11.5996 0.0477806 2.03869
lowerneck -5.36164 0.11426 -10.3131
upperneck 18.0344 -1.39592 13.2051
head 6.42207 -0.561169 5.92567
rclavicle 2.38045e-014 3.06128e-014
rhumerus -58.0002 6.62988 -94.9191
rradius 87.3647
rwrist 4.16018
rhand -10.2424 66.9179
rfingers 7.12502
rthumb 15.7502 37.5388
lclavicle 2.38045e-014 3.06128e-014
lhumerus -17.906 -0.418654 53.6348
lradius 95.8194
lwrist 43.9636
lhand 21.0322 44.9249
lfingers 7.12502
lthumb 45.4954 68.2266
rfemur -6.13324 -6.83347 13.8256
rtibia 53.5792
rfoot -1.12427 -14.063
rtoes -17.3632
lfemur -21.8854 13.1688 -31.0804
ltibia 39.9413
lfoot -25.5017 -2.00163
ltoes 19.549
111
root 14.8418 15.7773 1.33209 -162.31 -72.9872 166.368
lowerback 2.67384 -0.414432 -3.04297
upperback -9.37254 -1.29981 -1.02252
thorax -11.5062 -0.566091 0.792394
lowerneck -5.58199 0.476765 -10.0301
upperneck 18.2784 -0.971999 13.3772
head 6.48104 -0.322506 5.97104
rclavicle -2.90723e-014 -2.88238e-015
rhumerus -58.3844 6.68708 -93.7564
rradius 87.3333
rwrist 4.47962
rhand -10.0996 67.5144
rfingers 7.12502
rthumb 15.8877 38.1462
lclavicle -2.90723e-014 -2.88238e-015
lhumerus -19.136 0.980977 52.5045
lradius 96.374
lwrist 44.4843
lhand 22.4263 44.8918
lfingers 7.12502
lthumb 46.7883 67.6507
rfemur -5.09858 -7.099 13.7843
rtibia 51.4864
rfoot 0.413544 -13.2875
rtoes -15.281
lfemur -22.7954 11.7809 -31.5213
ltibia 39.2768
lfoot -24.7858 -1.52435
ltoes 19.6323
112
root 14.9322 15.8106 1.32668 -163.675 -71.9865 167.931
lowerback 2.75251 -0.441325 -1.91313
upperback -9.39415 -1.28678 -1.39548
thorax -11.6033 -0.687365 -0.239363
lowerneck -5.64981 0.827816 -9.73207
upperneck 18.3701 -0.575788 13.6048
head 6.46844 -0.0969953 6.02416
rclavicle 5.78184e-015 1.42426e-014
rhumerus -58.5455 6.70855 -92.4079
rradius 87.6007
rwrist 4.9587
rhand -10.3558 68.2827
rfingers 7.12502
rthumb 15.641 38.8949
lclavicle 5.78184e-015 1.42426e-014
lhumerus -20.2594 2.47517 51.3706
lradius 96.8972
lwrist 45.0888
lhand 24.1018 44.9572
lfingers 7.12502
lthumb 48.3353 67.0121
rfemur -3.74182 -5.4653 14.2418
rtibia 49.0215
rfoot 2.15158 -12.0958
rtoes -14.2641
lfemur -23.0634 11.841 -31.2124
ltibia 38.8604
lfoot -24.5857 -0.586152
ltoes 19.5722
113
root 15.0093 15.8526 1.32703 -164.256 -70.7395 168.487
lowerback 2.86784 -0.443161 -0.996115
upperback -9.3076 -1.25707 -1.85359
thorax -11.6032 -0.785076 -1.24792
lowerneck -5.8145 1.2718 -9.45691
upperneck 18.3872 -0.032153 13.8721
head 6.43101 0.20762 6.10236
rclavicle 8.38126e-014 3.32964e-014
rhumerus -58.304 7.0571 -90.9104
rradius 88
rwrist 4.9258
rhand -10.2682 68.6247
rfingers 7.12502
rthumb 15.7254 39.2436
lclavicle 8.38126e-014 3.32964e-014
lhumerus -21.3628 4.04749 50.126
lradius 97.6198
lwrist 45.6802
lhand 25.3953 45.2058
lfingers 7.12502
lthumb 49.5239 66.675
rfemur -2.08924 -3.92041 14.1397
rtibia 46.0603
rfoot 3.65215 -10.3867
rtoes -15.4751
lfemur -23.0397 11.6508 -31.1935
ltibia 38.5815
lfoot -24.7656 0.707304
ltoes 19.811
114
root 15.1547 15.8537 1.3266 -166.31 -69.7435 170.996
lowerback 3.36232 -0.520054 0.416965
upperback -9.4541 -1.27507 -2.06397
thorax -12.1164 -0.944909 -2.26011
lowerneck -5.99371 1.77181 -8.98623
upperneck 18.4246 0.57609 14.0521
head 6.39747 0.550703 6.12046
rclavicle 5.84924e-014 5.56597e-014
rhumerus -57.7061 7.40378 -89.3041
rradius 88.4482
rwrist 4.40098
rhand -9.56476 68.4509
rfingers 7.12502
rthumb 16.4027 39.1244
lclavicle 5.84924e-014 5.56597e-014
lhumerus -22.5265 5.51817 48.6573
lradius 98.4657
lwrist 46.1508
lhand 26.3802 45.6807
lfingers 7.12502
lthumb 50.4253 66.6772
rfemur -1.25197 -2.12583 15.2256
rtibia 42.7997
rfoot 5.06551 -9.68947
rtoes -17.5649
lfemur -24.0588 11.1959 -30.3494
ltibia 38.6269
lfoot -24.5934 2.07995
ltoes 20.0872
